<?xml version="1.0" encoding="utf-8"?>
<!-- Generator: Adobe Illustrator 16.0.0, SVG Export Plug-In . SVG Version: 6.00 Build 0)  -->
<!DOCTYPE svg PUBLIC "-//W3C//DTD SVG 1.1//EN" "http://www.w3.org/Graphics/SVG/1.1/DTD/svg11.dtd">
<svg version="1.1" id="Layer_1" xmlns="http://www.w3.org/2000/svg" xmlns:xlink="http://www.w3.org/1999/xlink" x="0px" y="0px"
	 width="1400px" height="1568px" viewBox="0 0 1400 1568" enable-background="new 0 0 1400 1568" xml:space="preserve">
<g>
	<g>
		<rect fill="#FFFFFF" width="1400" height="1568"/>
	</g>
	<g>
		<g>
			<path fill="#A7A9AC" d="M1107.7,493.9c0,225.2-182.5,407.7-407.7,407.7c-225.2,0-407.7-182.5-407.7-407.7
				c0-225.2,182.5-407.7,407.7-407.7C925.2,86.2,1107.7,268.7,1107.7,493.9z"/>
			<path d="M700,904.6c-226.5,0-410.8-184.3-410.8-410.8c0-226.5,184.3-410.7,410.8-410.7c226.5,0,410.8,184.3,410.8,410.7
				C1110.8,720.4,926.5,904.6,700,904.6z M700,89.2c-223.1,0-404.7,181.5-404.7,404.7c0,223.2,181.5,404.7,404.7,404.7
				c223.2,0,404.7-181.5,404.7-404.7C1104.7,270.7,923.1,89.2,700,89.2z"/>
		</g>
		<g>
			<path fill="#00E8A9" d="M536.1,364.4h327.8c20.2,0,36.6,16.4,36.6,36.6v233.4v31.8v104.4l-101.3-67.8H536.1
				c-20.2,0-36.6-16.4-36.6-36.6V401C499.5,380.8,515.9,364.4,536.1,364.4z"/>
			<path d="M900.5,773.6c-0.6,0-1.2-0.2-1.7-0.5l-100.5-67.3H536.1c-21.8,0-39.6-17.8-39.6-39.6V401c0-21.8,17.8-39.6,39.6-39.6
				h327.8c21.8,0,39.6,17.8,39.6,39.6v369.5c0,1.1-0.6,2.2-1.6,2.7C901.5,773.5,901,773.6,900.5,773.6z M536.1,367.5
				c-18.5,0-33.5,15-33.5,33.5v265.2c0,18.5,15,33.5,33.5,33.5h263.2c0.6,0,1.2,0.2,1.7,0.5l96.5,64.6V401c0-18.5-15-33.5-33.5-33.5
				H536.1z"/>
		</g>
		<g>
			<rect x="589.3" y="434.3" fill="#00D49A" width="211.5" height="214.7"/>
		</g>
		<g>
			<path d="M824.2,457.1H575.8c-1.7,0-3-1.4-3-3c0-1.7,1.4-3,3-3h248.4c1.7,0,3,1.4,3,3C827.2,455.7,825.9,457.1,824.2,457.1z"/>
		</g>
		<g>
			<path d="M824.2,531.8H575.8c-1.7,0-3-1.4-3-3s1.4-3,3-3h248.4c1.7,0,3,1.4,3,3S825.9,531.8,824.2,531.8z"/>
		</g>
		<g>
			<path d="M824.2,606.4H575.8c-1.7,0-3-1.4-3-3c0-1.7,1.4-3,3-3h248.4c1.7,0,3,1.4,3,3C827.2,605.1,825.9,606.4,824.2,606.4z"/>
		</g>
		<g>
			<path fill="#FFFFFF" d="M1116.7,208.5H788.9c-20.2,0-36.6,16.4-36.6,36.6v233.4v31.8v104.4l101.3-67.8h263.2
				c20.2,0,36.6-16.4,36.6-36.6V245.1C1153.3,224.9,1136.9,208.5,1116.7,208.5z"/>
			<path d="M752.3,617.6c-0.5,0-1-0.1-1.4-0.4c-1-0.5-1.6-1.6-1.6-2.7V245.1c0-21.8,17.8-39.6,39.6-39.6h327.8
				c21.8,0,39.6,17.8,39.6,39.6v265.2c0,21.8-17.8,39.6-39.6,39.6H854.5L754,617.1C753.5,617.5,752.9,617.6,752.3,617.6z
				 M788.9,211.5c-18.5,0-33.5,15-33.5,33.5v363.9l96.5-64.6c0.5-0.3,1.1-0.5,1.7-0.5h263.2c18.5,0,33.5-15,33.5-33.5V245.1
				c0-18.5-15-33.5-33.5-33.5H788.9z"/>
		</g>
		<g>
			<path fill="#00E8A9" d="M1099.8,370.5c0,15.9-12.9,28.9-28.9,28.9c-16,0-28.9-12.9-28.9-28.9c0-16,12.9-28.9,28.9-28.9
				C1086.9,341.6,1099.8,354.6,1099.8,370.5z"/>
			<path d="M1070.9,402.4c-17.6,0-31.9-14.3-31.9-31.9c0-17.6,14.3-31.9,31.9-31.9c17.6,0,31.9,14.3,31.9,31.9
				C1102.9,388.1,1088.5,402.4,1070.9,402.4z M1070.9,344.7c-14.3,0-25.9,11.6-25.9,25.9c0,14.3,11.6,25.9,25.9,25.9
				c14.2,0,25.8-11.6,25.8-25.9C1096.8,356.3,1085.2,344.7,1070.9,344.7z"/>
		</g>
		<g>
			<path fill="#00E8A9" d="M981.7,370.5c0,15.9-12.9,28.9-28.9,28.9c-16,0-28.9-12.9-28.9-28.9c0-16,12.9-28.9,28.9-28.9
				C968.7,341.6,981.7,354.6,981.7,370.5z"/>
			<path d="M952.8,402.4c-17.6,0-31.9-14.3-31.9-31.9c0-17.6,14.3-31.9,31.9-31.9c17.6,0,31.9,14.3,31.9,31.9
				C984.7,388.1,970.4,402.4,952.8,402.4z M952.8,344.7c-14.3,0-25.9,11.6-25.9,25.9c0,14.3,11.6,25.9,25.9,25.9
				c14.3,0,25.9-11.6,25.9-25.9C978.6,356.3,967,344.7,952.8,344.7z"/>
		</g>
		<g>
			<path fill="#00E8A9" d="M863.5,370.5c0,15.9-12.9,28.9-28.9,28.9c-15.9,0-28.9-12.9-28.9-28.9c0-16,12.9-28.9,28.9-28.9
				C850.6,341.6,863.5,354.6,863.5,370.5z"/>
			<path d="M834.6,402.4c-17.6,0-31.9-14.3-31.9-31.9c0-17.6,14.3-31.9,31.9-31.9c17.6,0,31.9,14.3,31.9,31.9
				C866.6,388.1,852.2,402.4,834.6,402.4z M834.6,344.7c-14.2,0-25.8,11.6-25.8,25.9c0,14.3,11.6,25.9,25.8,25.9
				c14.3,0,25.9-11.6,25.9-25.9C860.5,356.3,848.9,344.7,834.6,344.7z"/>
		</g>
		<g>
			<path fill="#FF8774" d="M631.4,399.4c0,52.2-42.3,94.5-94.5,94.5c-52.2,0-94.5-42.3-94.5-94.5c0-52.2,42.3-94.5,94.5-94.5
				C589.1,304.9,631.4,347.2,631.4,399.4z"/>
			<path d="M537,496.9c-53.8,0-97.5-43.7-97.5-97.5c0-53.8,43.8-97.5,97.5-97.5c53.8,0,97.5,43.7,97.5,97.5
				C634.5,453.2,590.7,496.9,537,496.9z M537,308c-50.4,0-91.5,41-91.5,91.5c0,50.4,41,91.5,91.5,91.5c50.4,0,91.5-41,91.5-91.5
				C628.4,349,587.4,308,537,308z"/>
		</g>
		<g>
			<g>
				<path fill="#FFFFFF" d="M523.1,447c0-9.5,4.5-14,13.8-14c9.3,0,13.8,4.5,13.8,14c0,9.5-4.5,14-13.8,14
					C527.6,460.9,523.1,456.5,523.1,447z M549.4,337.9v24.5l-3.1,61.9h-18.7l-3.1-61.9v-24.5H549.4z"/>
				<path d="M537,464c-11,0-16.9-5.9-16.9-17c0-11.1,5.8-17,16.9-17c11,0,16.9,5.9,16.9,17C553.8,458.1,548,464,537,464z M537,436
					c-7.7,0-10.8,3.2-10.8,11c0,7.8,3.1,11,10.8,11c7.7,0,10.8-3.2,10.8-11C547.8,439.2,544.6,436,537,436z M546.3,427.3h-18.7
					c-1.6,0-2.9-1.3-3-2.9l-3.1-61.9l0-24.7c0-1.7,1.4-3,3-3h24.9c1.7,0,3,1.4,3,3v24.5l-3.1,62
					C549.2,426.1,547.9,427.3,546.3,427.3z M530.5,421.3h12.9l3-59l0-21.4h-18.8v21.5L530.5,421.3z"/>
			</g>
		</g>
		<g>
			<path d="M537,284.9c-1.7,0-3-1.4-3-3v-73.4c0-1.7,1.4-3,3-3s3,1.4,3,3v73.4C540,283.5,538.6,284.9,537,284.9z"/>
		</g>
		<g>
			<path d="M420.5,402.4h-73.4c-1.7,0-3-1.4-3-3c0-1.7,1.4-3,3-3h73.4c1.7,0,3,1.4,3,3C423.5,401.1,422.2,402.4,420.5,402.4z"/>
		</g>
		<g>
			<path d="M452.7,318.4c-0.8,0-1.6-0.3-2.1-0.9l-51.9-51.9c-1.2-1.2-1.2-3.1,0-4.3c1.2-1.2,3.1-1.2,4.3,0l51.9,51.9
				c1.2,1.2,1.2,3.1,0,4.3C454.3,318.1,453.5,318.4,452.7,318.4z"/>
		</g>
		<g>
			<path d="M622.1,318.4c-0.8,0-1.6-0.3-2.1-0.9c-1.2-1.2-1.2-3.1,0-4.3l51.9-51.9c1.2-1.2,3.1-1.2,4.3,0c1.2,1.2,1.2,3.1,0,4.3
				l-51.9,51.9C623.6,318.1,622.8,318.4,622.1,318.4z"/>
		</g>
		<g>
			<path d="M400.9,536.5c-0.8,0-1.6-0.3-2.1-0.9c-1.2-1.2-1.2-3.1,0-4.3l51.9-51.9c1.2-1.2,3.1-1.2,4.3,0c1.2,1.2,1.2,3.1,0,4.3
				L403,535.6C402.4,536.2,401.6,536.5,400.9,536.5z"/>
		</g>
		<g>
			<g>
				<polygon fill="#FFF5B1" points="1307.3,848.8 776.8,848.8 1042.1,1053.2 				"/>
				<path d="M1042.1,1056.2c-0.7,0-1.3-0.2-1.9-0.6L775,851.2c-1-0.8-1.4-2.2-1-3.4c0.4-1.2,1.6-2.1,2.9-2.1h530.5
					c1.3,0,2.5,0.8,2.9,2.1c0.4,1.2,0,2.6-1,3.4l-265.2,204.4C1043.4,1056,1042.7,1056.2,1042.1,1056.2z M785.7,851.9l256.3,197.5
					l256.3-197.5H785.7z"/>
			</g>
			<g>
				<polygon fill="#F5EBA9" points="1042.1,1053.2 776.8,848.8 776.8,1188.7 1307.3,1188.7 1307.3,848.8 				"/>
				<path d="M1307.3,1191.7H776.8c-1.7,0-3-1.4-3-3V848.8c0-1.2,0.7-2.2,1.7-2.7c1-0.5,2.3-0.4,3.2,0.3l263.4,203l263.4-203
					c0.9-0.7,2.2-0.8,3.2-0.3c1,0.5,1.7,1.6,1.7,2.7v339.9C1310.3,1190.4,1309,1191.7,1307.3,1191.7z M779.9,1185.7h524.4V855
					l-260.4,200.6c-1.1,0.8-2.6,0.8-3.7,0L779.9,855V1185.7z"/>
			</g>
		</g>
		<g>
			<polygon fill="#A7A9AC" points="889.8,1443.3 889.8,1565 1147.4,1565 1147.4,1443.3 1122.3,1443.3 914.9,1443.3 			"/>
			<path d="M1147.4,1568H889.8c-1.7,0-3-1.4-3-3v-121.6c0-1.7,1.4-3,3-3h257.7c1.7,0,3,1.4,3,3V1565
				C1150.5,1566.6,1149.1,1568,1147.4,1568z M892.8,1561.9h251.6v-115.6H892.8V1561.9z"/>
		</g>
		<g>
			<polygon fill="#AEE4FF" points="914.9,1395.4 914.9,1443.3 1122.3,1443.3 1122.3,1395.4 1098.6,1395.4 936.6,1395.4 			"/>
			<path d="M1122.3,1446.4H914.9c-1.7,0-3-1.4-3-3v-47.9c0-1.7,1.4-3,3-3h207.4c1.7,0,3,1.4,3,3v47.9
				C1125.3,1445,1124,1446.4,1122.3,1446.4z M917.9,1440.3h201.4v-41.8H917.9V1440.3z"/>
		</g>
		<g>
			<path fill="#E6D6BF" d="M1178.3,1134.9l-27.1,39l27,14.7l6.8-10.9l4-6.4l20.5-33c1-1,3.3-4.1,4.3-8.3l0.7,0.1l-0.2-3.7
				C1188.7,1122.2,1178.3,1134.9,1178.3,1134.9z"/>
			<path d="M1178.2,1191.6c-0.5,0-1-0.1-1.5-0.4l-27-14.7c-0.8-0.4-1.3-1.1-1.5-2c-0.2-0.8,0-1.7,0.5-2.4l27.1-39
				c0.5-0.6,8.9-10.6,28.4-10.6c3.3,0,6.8,0.3,10.4,0.9c1.4,0.2,2.4,1.4,2.5,2.8l0.2,3.7c0.1,0.9-0.3,1.8-1,2.5
				c-0.1,0.1-0.2,0.2-0.4,0.3c-1.5,4.3-3.9,7.1-4.5,7.7l-30.9,49.9C1180.2,1191.1,1179.2,1191.6,1178.2,1191.6z M1155.6,1172.8
				l21.5,11.7l29.7-47.9c1.3-1.5,3.2-4.1,3.9-7.4c0-0.1,0-0.2,0.1-0.3c-2.3-0.3-4.5-0.4-6.6-0.4c-16.7,0-23.5,8.2-23.6,8.2
				L1155.6,1172.8z"/>
		</g>
		<g>
			<path fill="#FFEFD5" d="M1214.1,1125.5C1214.1,1125.5,1214.1,1125.5,1214.1,1125.5C1214.1,1125.5,1214.1,1125.5,1214.1,1125.5
				l-0.2-2.9l-0.5-0.1c-0.6-2.2-1.6-4.3-3.2-6.2l-0.7-0.8l-1-0.3c-0.7-0.2-68.6-21.5-112.4,59.7c-0.3,0.4-31.7,42.1-57.3,31.3
				c-0.2,0-14.6-3.8-23.6-17.6H870.1c0.2,8.3,1.7,16.8,4.5,25.5l50.8,134.3l5.1,47.1h174.1l1.7-4.6l16.4-38.6
				c0.5-1.2,12.2-30.6,12.2-61.3c0-9.9-1.2-18.8-3.7-26.7l47-75.8l-27-14.7l27.1-39c0,0,10.4-12.7,35.9-8.5L1214.1,1125.5z"/>
			<path d="M1104.6,1398.5H930.5c-1.5,0-2.8-1.2-3-2.7l-5.1-46.7l-50.7-133.9c-3-9-4.5-17.9-4.7-26.5c0-0.8,0.3-1.6,0.9-2.2
				c0.6-0.6,1.4-0.9,2.2-0.9h145.3c1,0,2,0.5,2.5,1.4c8.3,12.8,21.6,16.3,21.8,16.4c2.9,1.2,5.5,1.7,8.3,1.7
				c21.7,0,45.6-31.5,45.9-31.9c29.8-55.3,71.5-63.6,93.7-63.6c13.2,0,22,2.8,22.1,2.8l1,0.3c0.5,0.2,1,0.5,1.4,0.9l0.7,0.8
				c1.5,1.8,2.6,3.9,3.4,6.2c0.5,0.5,0.9,1.1,1,1.8l0.3,3.8c0.1,0.9-0.3,1.8-1,2.5c-0.7,0.6-1.6,0.9-2.5,0.8
				c-3.3-0.5-6.4-0.8-9.4-0.8c-16.4,0-23.3,7.9-23.6,8.3l-25,36l24,13.1c0.7,0.4,1.3,1.1,1.5,1.9c0.2,0.8,0.1,1.7-0.4,2.4
				l-46.3,74.6c2.3,7.8,3.4,16.7,3.4,26.3c0,31.8-12.3,62.1-12.4,62.4l-18.1,43.1C1107,1397.7,1105.8,1398.5,1104.6,1398.5z
				 M933.2,1392.4h169.3l1-2.6l16.5-38.7c0.1-0.3,11.9-29.5,11.9-60.1c0-9.5-1.2-18.2-3.5-25.8c-0.3-0.8-0.1-1.8,0.3-2.5l45.3-73.1
				l-24.2-13.2c-0.8-0.4-1.3-1.1-1.5-2c-0.2-0.8,0-1.7,0.5-2.4l27.1-39c0.5-0.6,8.9-10.6,28.4-10.6c2,0,4,0.1,6.1,0.3
				c-0.6-1.8-1.4-3.3-2.5-4.6l-0.2-0.2c-0.1,0-8-2.5-20.2-2.5c-25.5,0-61.5,10.5-88.6,60.8c-0.5,0.7-25.7,34.7-51,34.7h0
				c-3.5,0-7-0.7-10.2-2l0,0c-0.1,0-14.4-3.8-24-17.4H873.2c0.4,7,1.9,14.3,4.2,21.6l50.7,134.2c0.1,0.2,0.1,0.5,0.2,0.7
				L933.2,1392.4z"/>
		</g>
		<g>
			<g>
				<path fill="#FFFFFF" d="M680.1,1451.1c0,17.2-14.1,31.2-31.2,31.2H312.3c-17.2,0-31.2-14.1-31.2-31.2V815.6
					c0-17.2,14.1-31.2,31.2-31.2h336.5c17.2,0,31.2,14.1,31.2,31.2V1451.1z"/>
				<path d="M648.9,1485.4H312.3c-18.9,0-34.3-15.4-34.3-34.3V815.6c0-18.9,15.4-34.3,34.3-34.3h336.5c18.9,0,34.3,15.4,34.3,34.3
					v635.5C683.1,1470,667.8,1485.4,648.9,1485.4z M312.3,787.4c-15.6,0-28.2,12.7-28.2,28.2v635.5c0,15.6,12.6,28.2,28.2,28.2
					h336.5c15.6,0,28.2-12.7,28.2-28.2V815.6c0-15.5-12.7-28.2-28.2-28.2H312.3z"/>
			</g>
			<g>
				<rect x="313.6" y="859.9" fill="#0088B4" width="333.9" height="517.4"/>
				<path d="M647.5,1380.4H313.6c-1.7,0-3-1.4-3-3V859.9c0-1.7,1.4-3,3-3h333.9c1.7,0,3,1.4,3,3v517.4
					C650.6,1379,649.2,1380.4,647.5,1380.4z M316.7,1374.3h327.8V863H316.7V1374.3z"/>
			</g>
			<g>
				<path fill="#FFFFFF" d="M513.6,1427.7c0,18.2-14.8,33-33,33c-18.2,0-33-14.8-33-33c0-18.2,14.8-33,33-33
					C498.8,1394.7,513.6,1409.5,513.6,1427.7z"/>
				<path d="M480.6,1463.7c-19.9,0-36-16.2-36-36c0-19.9,16.2-36,36-36c19.9,0,36,16.2,36,36
					C516.6,1447.5,500.5,1463.7,480.6,1463.7z M480.6,1397.7c-16.5,0-30,13.4-30,30c0,16.5,13.4,30,30,30c16.5,0,30-13.4,30-30
					C510.6,1411.2,497.1,1397.7,480.6,1397.7z"/>
			</g>
		</g>
		<g>
			<g>
				<polygon fill="#FF8774" points="92.4,1313.9 348.1,1313.9 403.4,1364.4 403.4,1313.9 508.4,1313.9 508.4,1179.2 92.4,1179.2 
									"/>
				<path d="M403.4,1367.4c-0.7,0-1.5-0.3-2-0.8l-54.5-49.7H92.4c-1.7,0-3-1.4-3-3v-134.7c0-1.7,1.4-3,3-3h416c1.7,0,3,1.4,3,3
					v134.7c0,1.7-1.4,3-3,3H406.5v47.4c0,1.2-0.7,2.3-1.8,2.8C404.3,1367.3,403.8,1367.4,403.4,1367.4z M95.4,1310.9h252.6
					c0.8,0,1.5,0.3,2,0.8l50.3,45.8v-43.6c0-1.7,1.4-3,3-3h101.9v-128.7H95.4V1310.9z"/>
			</g>
			<g>
				<polygon fill="#FFF5B1" points="92.4,812.6 92.4,985.8 297,985.8 353.4,1037.1 353.4,985.8 508.4,985.8 508.4,812.6 				"/>
				<path d="M353.4,1040.2c-0.7,0-1.5-0.3-2-0.8l-55.5-50.5H92.4c-1.7,0-3-1.4-3-3V812.6c0-1.7,1.4-3,3-3h416c1.7,0,3,1.4,3,3v173.2
					c0,1.7-1.4,3-3,3h-152v48.3c0,1.2-0.7,2.3-1.8,2.8C354.2,1040.1,353.8,1040.2,353.4,1040.2z M95.4,982.8H297
					c0.8,0,1.5,0.3,2,0.8l51.3,46.7v-44.5c0-1.7,1.4-3,3-3h152V815.7H95.4V982.8z"/>
			</g>
		</g>
		<g>
			<polygon fill="#AEE4FF" points="836.2,1019.3 420.2,1019.3 420.2,1154 537.9,1154 537.9,1203.1 591.7,1154 836.2,1154 			"/>
			<path d="M537.9,1206.1c-0.4,0-0.8-0.1-1.2-0.3c-1.1-0.5-1.8-1.6-1.8-2.8v-46H420.2c-1.7,0-3-1.4-3-3v-134.8c0-1.7,1.4-3,3-3h416
				c1.7,0,3,1.4,3,3V1154c0,1.7-1.4,3-3,3H592.9l-53,48.3C539.4,1205.9,538.6,1206.1,537.9,1206.1z M423.3,1151h114.6
				c1.7,0,3,1.4,3,3v42.2l48.8-44.4c0.6-0.5,1.3-0.8,2-0.8h241.5v-128.7H423.3V1151z"/>
		</g>
		<g>
			<path fill="#E0D79A" d="M232.6,897.5c0,29.3-23.8,53.1-53.1,53.1c-29.3,0-53.1-23.8-53.1-53.1c0-29.3,23.8-53.1,53.1-53.1
				C208.8,844.5,232.6,868.2,232.6,897.5z"/>
			<path d="M179.5,953.7c-30.9,0-56.1-25.2-56.1-56.1c0-30.9,25.2-56.1,56.1-56.1c30.9,0,56.1,25.2,56.1,56.1
				C235.6,928.5,210.5,953.7,179.5,953.7z M179.5,847.5c-27.6,0-50.1,22.5-50.1,50c0,27.6,22.5,50.1,50.1,50.1
				c27.6,0,50-22.5,50-50.1C229.6,869.9,207.1,847.5,179.5,847.5z"/>
		</g>
		<g>
			<path fill="#FFFFFF" d="M190.1,906.7h-21.2c-14.5,0-26.3,11.8-26.3,26.3v2.7c9.5,9.2,22.5,14.9,36.8,14.9
				c14.3,0,27.3-5.7,36.8-14.9V933C216.4,918.5,204.6,906.7,190.1,906.7z"/>
			<path d="M179.5,953.7c-14.6,0-28.4-5.6-38.9-15.8c-0.6-0.6-0.9-1.4-0.9-2.2V933c0-16.2,13.1-29.3,29.3-29.3h21.2
				c16.1,0,29.3,13.1,29.3,29.3v2.7c0,0.8-0.3,1.6-0.9,2.2C207.9,948.1,194.1,953.7,179.5,953.7z M145.7,934.4
				c9.3,8.5,21.2,13.2,33.8,13.2c12.6,0,24.5-4.7,33.8-13.2V933c0-12.8-10.4-23.2-23.2-23.2h-21.2c-12.8,0-23.2,10.4-23.2,23.2
				V934.4z"/>
		</g>
		<g>
			<path fill="#FFFFFF" d="M196.1,881c0,9.2-7.4,16.6-16.6,16.6c-9.2,0-16.6-7.4-16.6-16.6c0-9.2,7.4-16.6,16.6-16.6
				C188.7,864.4,196.1,871.8,196.1,881z"/>
			<path d="M179.5,900.6c-10.8,0-19.6-8.8-19.6-19.6c0-10.8,8.8-19.6,19.6-19.6c10.8,0,19.6,8.8,19.6,19.6
				C199.1,891.8,190.3,900.6,179.5,900.6z M179.5,867.4c-7.5,0-13.6,6.1-13.6,13.6c0,7.5,6.1,13.6,13.6,13.6
				c7.5,0,13.6-6.1,13.6-13.6C193.1,873.5,187,867.4,179.5,867.4z"/>
		</g>
		<g>
			<path fill="#9BCBE6" d="M551.8,1088.3c0,29.3-23.8,53.1-53.1,53.1c-29.3,0-53.1-23.8-53.1-53.1c0-29.3,23.8-53.1,53.1-53.1
				C528,1035.2,551.8,1059,551.8,1088.3z"/>
			<path d="M498.7,1144.4c-30.9,0-56.1-25.2-56.1-56.1c0-30.9,25.2-56.1,56.1-56.1c30.9,0,56.1,25.2,56.1,56.1
				C554.8,1119.2,529.7,1144.4,498.7,1144.4z M498.7,1038.3c-27.6,0-50,22.5-50,50.1c0,27.6,22.5,50,50,50c27.6,0,50.1-22.5,50.1-50
				C548.8,1060.7,526.3,1038.3,498.7,1038.3z"/>
		</g>
		<g>
			<path fill="#FFFFFF" d="M509.3,1097.5h-21.2c-14.5,0-26.3,11.8-26.3,26.3v2.7c9.6,9.2,22.5,14.9,36.8,14.9
				c14.3,0,27.3-5.7,36.8-14.9v-2.7C535.5,1109.2,523.8,1097.5,509.3,1097.5z"/>
			<path d="M498.7,1144.4c-14.6,0-28.4-5.6-39-15.8c-0.6-0.6-0.9-1.4-0.9-2.2v-2.7c0-16.2,13.1-29.3,29.3-29.3h21.2
				c16.1,0,29.3,13.1,29.3,29.3v2.7c0,0.8-0.3,1.6-0.9,2.2C527.1,1138.8,513.3,1144.4,498.7,1144.4z M464.9,1125.1
				c9.3,8.5,21.2,13.2,33.8,13.2c12.6,0,24.5-4.7,33.8-13.2v-1.4c0-12.8-10.4-23.2-23.2-23.2h-21.2c-12.8,0-23.2,10.4-23.2,23.2
				V1125.1z"/>
		</g>
		<g>
			<path fill="#FFFFFF" d="M515.3,1071.7c0,9.2-7.4,16.6-16.6,16.6c-9.2,0-16.6-7.4-16.6-16.6c0-9.2,7.4-16.6,16.6-16.6
				C507.9,1055.1,515.3,1062.5,515.3,1071.7z"/>
			<path d="M498.7,1091.3c-10.8,0-19.6-8.8-19.6-19.6c0-10.8,8.8-19.6,19.6-19.6c10.8,0,19.6,8.8,19.6,19.6
				C518.3,1082.5,509.5,1091.3,498.7,1091.3z M498.7,1058.2c-7.5,0-13.6,6.1-13.6,13.6c0,7.5,6.1,13.5,13.6,13.5
				c7.5,0,13.6-6.1,13.6-13.5C512.3,1064.2,506.2,1058.2,498.7,1058.2z"/>
		</g>
		<g>
			<path fill="#EB7B6C" d="M216,1247.8c0,29.3-23.8,53.1-53.1,53.1c-29.3,0-53.1-23.8-53.1-53.1c0-29.3,23.8-53.1,53.1-53.1
				C192.3,1194.7,216,1218.5,216,1247.8z"/>
			<path d="M162.9,1303.9c-30.9,0-56.1-25.2-56.1-56.1c0-30.9,25.2-56.1,56.1-56.1c30.9,0,56.1,25.2,56.1,56.1
				C219,1278.7,193.9,1303.9,162.9,1303.9z M162.9,1197.8c-27.6,0-50,22.5-50,50.1c0,27.6,22.5,50,50,50s50-22.5,50-50
				C213,1220.2,190.5,1197.8,162.9,1197.8z"/>
		</g>
		<g>
			<path fill="#FFFFFF" d="M173.5,1257h-21.2c-14.5,0-26.3,11.8-26.3,26.3v2.7c9.6,9.2,22.5,14.9,36.8,14.9
				c14.3,0,27.3-5.7,36.8-14.9v-2.7C199.8,1268.7,188,1257,173.5,1257z"/>
			<path d="M162.9,1303.9c-14.6,0-28.4-5.6-38.9-15.8c-0.6-0.6-0.9-1.4-0.9-2.2v-2.7c0-16.2,13.1-29.3,29.3-29.3h21.2
				c16.2,0,29.3,13.1,29.3,29.3v2.7c0,0.8-0.3,1.6-0.9,2.2C191.3,1298.3,177.5,1303.9,162.9,1303.9z M129.1,1284.6
				c9.3,8.5,21.2,13.2,33.8,13.2c12.6,0,24.5-4.7,33.8-13.2v-1.4c0-12.8-10.4-23.2-23.2-23.2h-21.2c-12.8,0-23.2,10.4-23.2,23.2
				V1284.6z"/>
		</g>
		<g>
			<path fill="#FFFFFF" d="M179.5,1231.2c0,9.2-7.4,16.6-16.6,16.6c-9.2,0-16.6-7.4-16.6-16.6c0-9.2,7.4-16.6,16.6-16.6
				C172.1,1214.6,179.5,1222,179.5,1231.2z"/>
			<path d="M162.9,1250.8c-10.8,0-19.6-8.8-19.6-19.6c0-10.8,8.8-19.6,19.6-19.6c10.8,0,19.6,8.8,19.6,19.6
				C182.5,1242,173.7,1250.8,162.9,1250.8z M162.9,1217.6c-7.5,0-13.5,6.1-13.5,13.6c0,7.5,6.1,13.5,13.5,13.5s13.6-6.1,13.6-13.5
				C176.5,1223.7,170.4,1217.6,162.9,1217.6z"/>
		</g>
		<g>
			<path d="M469.6,852.7h-218c-1.7,0-3-1.4-3-3s1.4-3,3-3h218c1.7,0,3,1.4,3,3S471.3,852.7,469.6,852.7z"/>
		</g>
		<g>
			<path d="M469.6,900.6h-218c-1.7,0-3-1.4-3-3c0-1.7,1.4-3,3-3h218c1.7,0,3,1.4,3,3C472.7,899.2,471.3,900.6,469.6,900.6z"/>
		</g>
		<g>
			<path d="M469.6,948.4h-218c-1.7,0-3-1.4-3-3c0-1.7,1.4-3,3-3h218c1.7,0,3,1.4,3,3C472.7,947.1,471.3,948.4,469.6,948.4z"/>
		</g>
		<g>
			<path d="M808.9,1067.4h-218c-1.7,0-3-1.4-3-3c0-1.7,1.4-3,3-3h218c1.7,0,3,1.4,3,3C811.9,1066,810.6,1067.4,808.9,1067.4z"/>
		</g>
		<g>
			<path d="M808.9,1115.3h-218c-1.7,0-3-1.4-3-3c0-1.7,1.4-3,3-3h218c1.7,0,3,1.4,3,3C811.9,1113.9,810.6,1115.3,808.9,1115.3z"/>
		</g>
		<g>
			<path d="M469.6,1226.9h-218c-1.7,0-3-1.4-3-3c0-1.7,1.4-3,3-3h218c1.7,0,3,1.4,3,3C472.7,1225.5,471.3,1226.9,469.6,1226.9z"/>
		</g>
		<g>
			<path d="M469.6,1274.7h-218c-1.7,0-3-1.4-3-3c0-1.7,1.4-3,3-3h218c1.7,0,3,1.4,3,3C472.7,1273.4,471.3,1274.7,469.6,1274.7z"/>
		</g>
		<g>
			<g>
				<path fill="#FF8774" d="M1332.6,848.8c0,49.5-40.1,89.7-89.7,89.7c-49.5,0-89.7-40.1-89.7-89.7c0-49.5,40.2-89.7,89.7-89.7
					C1292.5,759.2,1332.6,799.3,1332.6,848.8z"/>
				<path d="M1243,941.5c-51.1,0-92.7-41.6-92.7-92.7c0-51.1,41.6-92.7,92.7-92.7c51.1,0,92.7,41.6,92.7,92.7
					C1335.7,900,1294.1,941.5,1243,941.5z M1243,762.2c-47.8,0-86.6,38.9-86.6,86.6s38.9,86.6,86.6,86.6c47.8,0,86.6-38.9,86.6-86.6
					S1290.7,762.2,1243,762.2z"/>
			</g>
			<g>
				<g>
					<path fill="#FFFFFF" d="M1211.4,876.2c7.4,4.1,17.8,6.2,25.4,6.2c14.3,0,23.2-5.9,23.2-17.2c0-11.6-8.3-17.4-20.9-17.4
						c-8.7,0-17,2.3-22.2,5.5l-7.1-3.9v-52.2h64.3v17.7h-43.5v19.6c4.1-2,10.4-3.2,16.4-3.2c18.3,0,34,12.5,34,33.5
						c0,21.9-15.6,35.6-42.9,35.6c-12,0-23.9-2.5-33.3-7.4L1211.4,876.2z"/>
				</g>
			</g>
		</g>
		<g>
			<g>
				<g>
					<polygon fill="#FFFFFF" points="196.9,329.9 245,339.9 510,74.9 					"/>
					<path d="M245,342.9c-0.2,0-0.4,0-0.6-0.1l-48.1-10c-1.1-0.2-2-1.1-2.3-2.2c-0.3-1.1,0.1-2.3,1-3.1l313.1-255
						c1.2-1,3.1-0.9,4.2,0.3c1.1,1.2,1,3-0.1,4.2l-265,265C246.6,342.6,245.8,342.9,245,342.9z M203.8,328.3l40.3,8.3l221.8-221.8
						L203.8,328.3z"/>
				</g>
				<g>
					<polygon fill="#FFFFFF" points="89,222 196.9,329.9 510,74.9 					"/>
					<path d="M196.9,333c-0.8,0-1.6-0.3-2.1-0.9l-108-108c-0.7-0.7-1-1.8-0.8-2.8c0.2-1,1-1.8,2-2.2L509,72c1.4-0.5,2.9,0.1,3.6,1.4
						c0.7,1.3,0.4,2.9-0.7,3.8l-313.1,255C198.3,332.7,197.6,333,196.9,333z M94.5,223.2l102.6,102.6L494.7,83.5L94.5,223.2z"/>
				</g>
				<g>
					<polygon fill="#FFFFFF" points="363,496 510,74.9 255,388 					"/>
					<path d="M363,499c-0.8,0-1.6-0.3-2.1-0.9l-108-108c-1.1-1.1-1.2-2.9-0.2-4.1L507.7,73c0.9-1.1,2.5-1.5,3.8-0.7
						c1.3,0.7,1.9,2.3,1.4,3.6L365.8,497c-0.3,1-1.2,1.7-2.2,2C363.4,499,363.2,499,363,499z M259.1,387.8l102.6,102.6L501.5,90.2
						L259.1,387.8z"/>
				</g>
				<g>
					<polygon fill="#FFFFFF" points="510,74.9 510,74.9 245,339.9 255,388 					"/>
					<path d="M255,391c-0.2,0-0.5,0-0.7-0.1c-1.1-0.3-2-1.2-2.3-2.3l-10-48.1c-0.2-1,0.1-2,0.8-2.8l265-265c1-1,2.7-1.2,3.9-0.3
						c1.2,0.9,1.6,2.5,0.9,3.8c-0.1,0.2-0.2,0.4-0.4,0.6l-255,313.1C256.8,390.6,255.9,391,255,391z M248.3,340.9l8.4,40.3
						l213.5-262.1L248.3,340.9z"/>
				</g>
			</g>
			<g>
				<path d="M88,338c-0.8,0-1.6-0.3-2.1-0.9c-1.2-1.2-1.2-3.1,0-4.3l32.6-32.6c1.2-1.2,3.1-1.2,4.3,0c1.2,1.2,1.2,3.1,0,4.3
					l-32.6,32.6C89.5,337.7,88.7,338,88,338z"/>
			</g>
			<g>
				<path d="M85.1,444.8c-0.8,0-1.6-0.3-2.1-0.9c-1.2-1.2-1.2-3.1,0-4.3l87.4-87.4c1.2-1.2,3.1-1.2,4.3,0c1.2,1.2,1.2,3.1,0,4.3
					l-87.4,87.4C86.7,444.5,85.9,444.8,85.1,444.8z"/>
			</g>
			<g>
				<path d="M185.3,402.7c-0.8,0-1.6-0.3-2.1-0.9c-1.2-1.2-1.2-3.1,0-4.3l16.3-16.3c1.2-1.2,3.1-1.2,4.3,0c1.2,1.2,1.2,3.1,0,4.3
					l-16.3,16.3C186.8,402.4,186,402.7,185.3,402.7z"/>
			</g>
			<g>
				<path d="M186.9,459.2c-0.8,0-1.6-0.3-2.1-0.9c-1.2-1.2-1.2-3.1,0-4.3l43.7-43.7c1.2-1.2,3.1-1.2,4.3,0c1.2,1.2,1.2,3.1,0,4.3
					L189,458.3C188.4,458.9,187.7,459.2,186.9,459.2z"/>
			</g>
			<g>
				<path d="M252.7,481.2c-0.8,0-1.6-0.3-2.1-0.9c-1.2-1.2-1.2-3.1,0-4.3l21.8-21.8c1.2-1.2,3.1-1.2,4.3,0c1.2,1.2,1.2,3.1,0,4.3
					l-21.8,21.8C254.2,480.9,253.4,481.2,252.7,481.2z"/>
			</g>
		</g>
		<g>
			<path fill="#FFFFFF" d="M318.2,693.6c15.9-14.8,26-35.8,26-59.3v-36c0-44.7-36.2-80.9-80.9-80.9h-89.9
				c-44.7,0-80.9,36.2-80.9,80.9v36c0,44.7,36.2,80.9,80.9,80.9h89.9c2.3,0,4.6-0.1,6.9-0.3c27.7,29.8,79.5,27.4,79.5,27.4
				C333.6,733.6,323.8,711.7,318.2,693.6z"/>
			<path d="M347,745.4c-12.2,0-53.4-2-78.1-27.4c-1.9,0.1-3.8,0.2-5.7,0.2h-89.9c-46.3,0-84-37.7-84-84v-36c0-46.3,37.7-84,84-84
				h89.9c46.3,0,84,37.7,84,84v36c0,22.6-9.3,44.4-25.5,60.2c5.3,16.6,14.6,37.2,29.4,45.2c1.2,0.7,1.8,2,1.5,3.3
				c-0.3,1.3-1.5,2.3-2.8,2.3C349.8,745.4,348.8,745.4,347,745.4z M270.1,711.8c0.8,0,1.6,0.3,2.2,1c19.5,21,51.4,25.5,67.7,26.3
				c-12.3-11.2-20.1-29.8-24.7-44.7c-0.3-1.1,0-2.3,0.8-3.1c16.1-15,25-35.2,25-57v-36c0-42.9-34.9-77.9-77.9-77.9h-89.9
				c-42.9,0-77.9,34.9-77.9,77.9v36c0,42.9,34.9,77.9,77.9,77.9h89.9c2.2,0,4.4-0.1,6.6-0.3C269.9,711.9,270,711.8,270.1,711.8z"/>
		</g>
		<g>
			<rect x="997.1" y="603.4" fill="#FFFFFF" width="155.8" height="155.8"/>
			<path d="M1152.9,762.2H997.1c-1.7,0-3-1.4-3-3V603.4c0-1.7,1.4-3,3-3h155.8c1.7,0,3,1.4,3,3v155.8
				C1155.9,760.8,1154.6,762.2,1152.9,762.2z M1000.2,756.1h149.7V606.4h-149.7V756.1z"/>
		</g>
		<g>
			<path d="M1243,684.3c-1.7,0-3-1.4-3-3v-494c0-25.1-20.4-45.5-45.5-45.5h-294c-1.7,0-3-1.4-3-3c0-1.7,1.4-3,3-3h294
				c28.4,0,51.5,23.1,51.5,51.5v494C1246,683,1244.6,684.3,1243,684.3z"/>
		</g>
		<g>
			<polygon fill="#00E8A9" points="1276.4,676.1 1243,734 1209.5,676.1 			"/>
			<path d="M1243,737c-1.1,0-2.1-0.6-2.6-1.5l-33.4-57.9c-0.5-0.9-0.5-2.1,0-3c0.5-0.9,1.5-1.5,2.6-1.5h66.9c1.1,0,2.1,0.6,2.6,1.5
				c0.5,0.9,0.5,2.1,0,3l-33.4,57.9C1245,736.5,1244,737,1243,737z M1214.8,679.1l28.2,48.8l28.2-48.8H1214.8z"/>
		</g>
		<g>
			<path fill="#FF8774" d="M1123.2,647.7l-3.3-3.3c-1.5-1.5-3.1-2.8-4.8-3.9c-3.1-2-6.5-3.3-10-3.9c-8.7-1.6-18,1-24.8,7.8l-5.2,5.2
				l-5.2-5.2c-6.7-6.7-16-9.3-24.8-7.8c-3.5,0.6-6.9,1.9-10,3.9c-1.7,1.1-3.3,2.4-4.8,3.9l-3.3,3.3c-10.9,10.9-10.9,28.7,0,39.6
				l5.2,5.2l42.9,42.9l42.9-42.9l5.2-5.2C1134.1,676.4,1134.1,658.6,1123.2,647.7z"/>
			<path d="M1075,738.5c-0.8,0-1.6-0.3-2.1-0.9l-48.1-48.1c-5.9-5.9-9.1-13.7-9.1-22c0-8.3,3.2-16.1,9.1-22l3.3-3.3
				c1.5-1.6,3.4-3,5.3-4.3c3.4-2.2,7.2-3.6,11.1-4.3c10-1.8,20.3,1.4,27.4,8.6l3.1,3.1l3.1-3.1c7.2-7.2,17.5-10.4,27.4-8.6
				c4,0.7,7.7,2.2,11.1,4.3c2,1.2,3.8,2.7,5.4,4.3l3.3,3.3c12.1,12.1,12.1,31.8,0,43.9l-48.1,48.1
				C1076.6,738.2,1075.8,738.5,1075,738.5z M1050,639.2c-1.5,0-3,0.1-4.4,0.4c-3.2,0.6-6.2,1.7-8.9,3.5c-1.6,1-3.1,2.2-4.3,3.4
				l-3.3,3.3c-4.7,4.7-7.3,11-7.3,17.7s2.6,13,7.3,17.7l46,46l46-46c9.7-9.7,9.7-25.6,0-35.3l-3.3-3.3c-1.3-1.3-2.7-2.4-4.3-3.4
				c-2.7-1.7-5.8-2.9-8.9-3.5c-8-1.4-16.3,1.2-22.1,6.9l-5.2,5.2c-1.2,1.2-3.1,1.2-4.3,0l-5.2-5.2
				C1062.9,641.8,1056.7,639.2,1050,639.2z"/>
		</g>
		<g>
			<path d="M1276.4,470.3c-1.7,0-3-1.4-3-3V329.9c0-1.7,1.4-3,3-3c1.7,0,3,1.4,3,3v137.4C1279.4,469,1278.1,470.3,1276.4,470.3z"/>
		</g>
		<g>
			<path d="M1276.4,292.5c-1.7,0-3-1.4-3-3v-82c0-1.7,1.4-3,3-3c1.7,0,3,1.4,3,3v82C1279.4,291.1,1278.1,292.5,1276.4,292.5z"/>
		</g>
		<g>
			<path d="M1307.3,1412.1h-102.4c-1.7,0-3-1.4-3-3c0-1.7,1.4-3,3-3h102.4c1.7,0,3,1.4,3,3C1310.3,1410.8,1309,1412.1,1307.3,1412.1
				z"/>
		</g>
		<g>
			<path d="M1307.3,1339.3H1243c-1.7,0-3-1.4-3-3c0-1.7,1.4-3,3-3h64.3c1.7,0,3,1.4,3,3C1310.3,1338,1309,1339.3,1307.3,1339.3z"/>
		</g>
		<g>
			<path d="M834.6,1446.4H732.3c-1.7,0-3-1.4-3-3c0-1.7,1.4-3,3-3h102.3c1.7,0,3,1.4,3,3C837.7,1445,836.3,1446.4,834.6,1446.4z"/>
		</g>
		<g>
			<path d="M834.6,1380.4H732.3c-1.7,0-3-1.4-3-3c0-1.7,1.4-3,3-3h102.3c1.7,0,3,1.4,3,3C837.7,1379,836.3,1380.4,834.6,1380.4z"/>
		</g>
		<g>
			<rect x="149.6" y="567.3" fill="#0088B4" width="133.4" height="25.9"/>
			<path d="M283.1,596.2H149.6c-1.7,0-3-1.4-3-3v-25.9c0-1.7,1.4-3,3-3h133.4c1.7,0,3,1.4,3,3v25.9
				C286.1,594.9,284.7,596.2,283.1,596.2z M152.7,590.2H280v-19.9H152.7V590.2z"/>
		</g>
		<g>
			<rect x="149.6" y="636" fill="#0088B4" width="133.4" height="25.9"/>
			<path d="M283.1,665H149.6c-1.7,0-3-1.4-3-3V636c0-1.7,1.4-3,3-3h133.4c1.7,0,3,1.4,3,3v25.9C286.1,663.6,284.7,665,283.1,665z
				 M152.7,658.9H280V639H152.7V658.9z"/>
		</g>
	</g>
</g>
</svg>
